<svg xmlns="http://www.w3.org/2000/svg" viewBox="0 0 435.01 192.45">
			<defs>
				<style>
					.cls-1 {
						fill: #1e3769;
					}
					.cls-2 {
						fill: #1d4f91;
					}
				</style>
			</defs>
			<title>leapa</title>
			<g id="Layer_2" data-name="Layer 2">
				<g id="Layer_1-2" data-name="Layer 1">
					<path
						class="cls-1"
						d="M42.28,158.24q-13.1-.19-21.24-2.81a31.6,31.6,0,0,1-12.89-7.35A24.38,24.38,0,0,1,1.71,136.6,61.91,61.91,0,0,1,0,121.45V4.83L30,0V115.36a39.78,39.78,0,0,0,.6,7.25A12.42,12.42,0,0,0,32.92,128a12.24,12.24,0,0,0,4.93,3.63,27,27,0,0,0,8.66,1.78Z"
					/>
					<path
						class="cls-1"
						d="M42.92,103.45q0-14,4.3-24.52A52.42,52.42,0,0,1,58.53,61.45,47.17,47.17,0,0,1,74.64,50.84a50.47,50.47,0,0,1,18.71-3.6q22.41,0,35.43,13.71t13,40.33c0,1.74-.07,3.64-.2,5.71s-.27,3.9-.4,5.5H73.54a19.76,19.76,0,0,0,8.61,14.61q7.62,5.35,20.41,5.35a85.39,85.39,0,0,0,16.11-1.5,60.57,60.57,0,0,0,12.91-3.7l4,24.22a41,41,0,0,1-6.4,2.4,84,84,0,0,1-8.91,2.1c-3.27.6-6.77,1.11-10.51,1.5a102.5,102.5,0,0,1-11.2.6q-14.22,0-24.72-4.2a48,48,0,0,1-17.41-11.51,45.58,45.58,0,0,1-10.21-17.31,68.58,68.58,0,0,1-3.3-21.6Zm70-11a31.29,31.29,0,0,0-1.3-7.4,18.74,18.74,0,0,0-3.41-6.41,18.19,18.19,0,0,0-5.8-4.6,18.92,18.92,0,0,0-8.71-1.8,20,20,0,0,0-8.6,1.7,17.82,17.82,0,0,0-6,4.5A20.06,20.06,0,0,0,75.4,85a42.51,42.51,0,0,0-1.9,7.5Z"
					/>
					<path
						class="cls-1"
						d="M187.62,47.7c-3.47,0-6.9.16-10.31.5s-6.63.73-9.7,1.2-5.91,1-8.51,1.6-4.77,1.17-6.5,1.7l3.8,24a65,65,0,0,1,12.81-3.11,102.51,102.51,0,0,1,15-1.1,41.87,41.87,0,0,1,6.47.52l2.69-25.16c-1.84-.09-3.74-.15-5.75-.15Z"
					/>
					<path
						class="cls-1"
						d="M177.12,132.26q-4.71-2.7-4.71-9.71a10.56,10.56,0,0,1,1.6-6,11.26,11.26,0,0,1,4.41-3.81,20.9,20.9,0,0,1,6.5-1.9c.56-.07,1.17-.11,1.74-.17l2.18-20.31h-1.62a79.91,79.91,0,0,0-16.61,1.7,44.7,44.7,0,0,0-14.21,5.5,28.53,28.53,0,0,0-9.91,10.21q-3.72,6.38-3.72,15.58,0,9.61,3.2,16.22a27.05,27.05,0,0,0,9.21,10.7,40,40,0,0,0,14.31,5.91,82.06,82.06,0,0,0,12.13,1.5l2.5-23.23a20.37,20.37,0,0,1-7-2.19Z"
					/>
					<path
						class="cls-2"
						d="M231.77,72.51a32.15,32.15,0,0,0-7.6-13.8A34.81,34.81,0,0,0,209.86,50a51.89,51.89,0,0,0-8.09-1.93l-3,27.58a11.87,11.87,0,0,1,1.53,1.13Q205,81.44,205,89.14V92a48,48,0,0,0-7.79-1.36l-2.13,19.88c1.41.06,2.87.16,4.45.33,2.43.28,4.26.54,5.48.81v22.92a58.29,58.29,0,0,1-6.5.61c-1.93.1-4,.12-6.08.15l-2.5,23.35a170.5,170.5,0,0,0,26-1.9q11.56-1.92,18-3.34V90.56A67.9,67.9,0,0,0,231.77,72.51Z"
					/>
					<path
						class="cls-2"
						d="M343.45,102.8a76.43,76.43,0,0,1-3,22.21,49.89,49.89,0,0,1-8.86,17.22,39.86,39.86,0,0,1-14.51,11.22,47,47,0,0,1-19.94,4,54,54,0,0,1-11.67-1.2A56,56,0,0,1,275,152.84v34.61l-30,5V53.76q4-1.2,9.26-2.3t11-1.9q5.75-.81,11.68-1.3c4-.34,7.75-.5,11.38-.5a65.44,65.44,0,0,1,23.35,3.9,47.93,47.93,0,0,1,17.31,11A47.12,47.12,0,0,1,339.77,80a66.25,66.25,0,0,1,3.68,22.82Zm-30.82,1.14q0-13.81-6.21-22.12T288,73.52c-2.67,0-5.14.09-7.41.3s-4.14.43-5.6.7v53.84a25.81,25.81,0,0,0,7.3,3,35.23,35.23,0,0,0,9.11,1.2q21.21,0,21.22-28.62Z"
					/>
					<path
						class="cls-2"
						d="M388.56,47q13.38,0,22.31,3a34.63,34.63,0,0,1,14.29,8.72,32.07,32.07,0,0,1,7.61,13.83,68.31,68.31,0,0,1,2.23,18v62.88q-6.5,1.41-18,3.34a174,174,0,0,1-28,1.93,88.54,88.54,0,0,1-18.76-1.83,40.52,40.52,0,0,1-14.49-6A27.32,27.32,0,0,1,346.37,140q-3.25-6.69-3.25-16.42,0-9.33,3.75-15.82a28.88,28.88,0,0,1,10-10.35,45.56,45.56,0,0,1,14.4-5.57,80.67,80.67,0,0,1,16.83-1.73,94.91,94.91,0,0,1,10.44.51A46.89,46.89,0,0,1,406,92V89.15q0-7.71-4.67-12.37t-16.22-4.67a103.75,103.75,0,0,0-15.21,1.12,65.19,65.19,0,0,0-13,3.14L353.07,52q2.63-.81,6.59-1.73c2.63-.61,5.5-1.14,8.62-1.62s6.39-.88,9.83-1.22S385,47,388.56,47Zm2.63,88c2.93,0,5.73-.06,8.4-.2a57.2,57.2,0,0,0,6.41-.6V111.55a52.38,52.38,0,0,0-5.41-.8,58.11,58.11,0,0,0-14.51.09,20.9,20.9,0,0,0-6.5,1.9,11.16,11.16,0,0,0-4.4,3.81,10.49,10.49,0,0,0-1.61,6q0,7,4.71,9.71t12.91,2.7Z"
					/>
				</g>
			</g>
		</svg>